# xmcd CD database file
#
# Track frame offsets:
#	150
#	24684
#	48814
#	73436
#	83817
#	103214
#	123109
#	132062
#	161621
#	180146
#	199606
#
# Disc length: 2774 seconds
#
# Revision: 0
# Processed by: cddbd v1.5.2PL0 Copyright (c) Steve Scherf et al.
# Submitted via: CDex 1.70beta2
#
DISCID=8b0ad40b
DTITLE=Slow Motion Quintett - Good Rain - Solveig Slettahjell
DYEAR=2006
DGENRE=Jazz
TTITLE0=Where Do You Run To
TTITLE1=Another Day
TTITLE2=Don't Look Back
TTITLE3=Colour Lullabye
TTITLE4=Flawless
TTITLE5=We Were Indians
TTITLE6=Do Lord
TTITLE7=My Oh My
TTITLE8=Good Rain
TTITLE9=The Moon
TTITLE10=P.S. I Love You
EXTD=YEAR: 2006
EXTT0=
EXTT1=
EXTT2=
EXTT3=
EXTT4=
EXTT5=
EXTT6=
EXTT7=
EXTT8=
EXTT9=
EXTT10=
PLAYORDER=
